<!DOCTYPE svg PUBLIC "-//W3C//DTD SVG 20010904//EN" "http://www.w3.org/TR/2001/REC-SVG-20010904/DTD/svg10.dtd">
<svg version="1.0" xmlns="http://www.w3.org/2000/svg" width="799px" height="261px" viewBox="0 0 7990 2610" preserveAspectRatio="xMidYMid meet">
<g id="layer1" fill="#bf3c1a" stroke="none">
 <path d="M1720 778 c0 -156 2 -188 14 -188 8 0 28 -12 45 -26 26 -21 31 -33 31 -69 0 -36 -5 -48 -31 -69 -17 -14 -37 -26 -45 -26 -11 0 -14 -20 -14 -96 l0 -97 45 6 c135 19 235 138 235 282 0 120 -63 242 -197 383 l-82 87 -1 -187z"/>
 </g>
<g id="layer2" fill="#ff5023" stroke="none">
 <path d="M1288 2603 c90 -2 234 -2 320 0 86 1 13 3 -163 3 -176 0 -247 -2 -157 -3z"/>
 <path d="M1634 883 c-84 -97 -150 -198 -175 -269 -28 -80 -26 -191 6 -253 42 -84 143 -151 227 -151 l28 0 0 95 c0 87 -2 95 -19 95 -32 0 -71 41 -77 80 -7 47 25 98 66 107 l30 6 0 183 c0 101 -4 184 -9 184 -5 0 -39 -35 -77 -77z"/>
 </g>
<g id="layer3" fill="#a0815c" stroke="none">
 <path d="M500 2512 l0 -101 635 0 635 0 0 95 0 94 -162 0 c-90 0 -376 3 -635 7 l-473 6 0 -101z"/>
 <path d="M1433 495 c0 -27 2 -38 4 -22 2 15 2 37 0 50 -2 12 -4 0 -4 -28z"/>
 </g>
<g id="layer4" fill="#5a8bb0" stroke="none">
 <path d="M1336 1778 c-8 -29 -108 -352 -220 -718 -113 -366 -202 -668 -198 -672 12 -12 160 -38 214 -38 72 0 159 15 240 41 l68 21 -6 52 c-3 28 -1 69 5 91 8 32 6 80 -9 219 -11 99 -20 180 -20 181 0 1 -27 10 -61 19 -45 13 -59 21 -55 32 3 8 15 47 27 87 12 40 23 75 26 79 2 4 29 -2 60 -13 31 -10 58 -18 59 -16 2 2 19 54 38 116 19 63 37 115 39 117 2 2 44 -9 93 -24 l89 -28 -4 -178 -4 -178 59 -59 c32 -32 61 -59 65 -59 13 0 41 131 46 220 19 343 -193 655 -514 754 -19 6 -23 1 -37 -46z m-80 -1133 c17 -58 27 -105 22 -105 -21 0 -228 64 -228 71 0 7 160 139 169 139 3 0 20 -47 37 -105z"/>
 </g>
<g id="layer5" fill="#5a6dd2" stroke="none">
 <path d="M3890 2024 c0 -3 45 -54 100 -114 l99 -109 -91 -168 c-182 -336 -184 -338 -207 -337 -11 0 -45 1 -73 2 l-53 2 5 136 5 136 152 62 c84 34 155 65 158 68 3 3 -188 8 -425 13 -237 4 -433 5 -436 3 -2 -3 60 -38 139 -80 l142 -75 3 -94 c2 -52 0 -193 -3 -315 l-7 -221 -94 -42 -94 -42 -39 20 -39 20 -7 208 c-9 274 -19 363 -48 427 -63 136 -202 203 -407 194 -118 -6 -190 -32 -259 -94 -29 -26 -62 -69 -78 -102 l-28 -57 0 -280 1 -280 -118 -54 c-65 -30 -116 -56 -114 -59 7 -6 686 41 686 48 0 3 -43 22 -95 44 l-95 38 0 235 c0 266 5 293 62 358 101 114 289 65 338 -89 9 -29 11 -98 5 -281 -4 -133 -10 -247 -14 -252 -3 -6 -53 -35 -111 -66 l-105 -57 203 0 c112 0 256 4 320 10 64 5 232 14 372 20 329 13 448 37 549 110 50 37 71 76 71 134 0 64 -45 111 -155 166 -47 23 -85 43 -85 44 0 0 67 98 149 216 l148 215 179 6 c98 4 190 7 204 8 21 2 -778 331 -802 331 -5 0 -8 -3 -8 -6z m-44 -859 c147 -26 220 -70 212 -128 -4 -25 -55 -62 -107 -77 -60 -17 -233 -34 -273 -26 l-38 7 0 104 c0 57 3 110 6 119 8 21 82 21 200 1z"/>
 <path d="M6960 1887 c8 -7 60 -50 115 -94 l100 -80 -17 -429 c-10 -236 -20 -434 -22 -439 -2 -6 -79 -35 -170 -64 -92 -30 -165 -56 -162 -58 6 -7 598 -84 603 -79 2 2 -2 143 -8 315 -7 171 -10 313 -7 316 2 3 31 0 64 -6 93 -17 297 -7 364 19 115 45 169 118 170 228 0 110 -65 200 -190 264 -112 57 -141 61 -780 115 -65 6 -73 5 -60 -8z m631 -174 c133 -35 184 -144 119 -250 -31 -51 -92 -78 -175 -76 -38 0 -88 7 -110 14 -37 13 -41 18 -47 59 -12 82 -9 268 5 273 20 9 148 -4 208 -20z"/>
 <path d="M5045 1380 l-189 -450 -101 -30 c-55 -17 -116 -36 -135 -42 -19 -6 -38 -13 -42 -17 -4 -4 180 -21 409 -39 229 -18 418 -30 420 -28 3 2 -58 37 -135 78 l-140 73 76 203 75 202 112 -242 c62 -133 117 -244 122 -245 5 -2 72 111 149 251 125 230 140 253 150 233 33 -66 145 -380 138 -387 -5 -4 -80 -41 -166 -81 -87 -41 -158 -76 -158 -79 0 -7 757 84 765 91 3 3 -57 23 -134 44 -76 20 -143 40 -149 44 -6 4 -85 197 -176 430 -91 233 -167 426 -171 429 -10 11 -24 -13 -141 -260 -65 -137 -120 -248 -123 -248 -3 1 -61 116 -128 258 -67 141 -125 258 -130 259 -4 1 -93 -200 -198 -447z"/>
 <path d="M6490 1756 c-108 -30 -194 -101 -239 -196 -23 -48 -26 -68 -26 -155 0 -96 1 -103 36 -165 67 -122 182 -189 340 -198 104 -5 178 13 241 61 91 70 142 168 154 300 l7 74 -272 5 c-149 2 -273 7 -277 10 -8 9 20 59 48 85 82 77 290 68 402 -17 22 -16 41 -28 44 -26 10 11 -22 78 -57 118 -84 95 -264 142 -401 104z m280 -416 c0 -29 -33 -90 -63 -118 -47 -44 -123 -47 -184 -7 -23 16 -73 105 -73 133 0 9 39 12 160 12 154 0 160 -1 160 -20z"/>
 </g>
<g id="layer6" fill="#78b9eb" stroke="none">
 <path d="M995 1855 c-128 -23 -257 -85 -367 -177 -90 -75 -187 -227 -222 -350 -22 -74 -37 -213 -30 -269 l6 -47 73 -21 c41 -12 80 -24 88 -26 10 -4 23 25 51 115 20 66 38 120 40 120 2 0 23 -7 46 -15 69 -24 74 -22 124 63 l46 77 -50 15 c-28 8 -50 19 -50 23 0 22 52 177 59 177 5 0 28 -7 51 -15 23 -8 48 -15 54 -15 6 0 26 52 45 115 19 63 39 115 45 115 5 0 48 -12 94 -26 l84 -25 -6 -222 c-3 -122 -4 -217 -1 -212 22 48 173 571 167 577 -14 14 -159 38 -220 37 -32 0 -88 -7 -127 -14z"/>
 <path d="M1723 1260 c0 -36 2 -50 4 -32 2 17 2 47 0 65 -2 17 -4 3 -4 -33z"/>
 <path d="M986 1188 l-49 -82 22 -139 23 -139 -28 -89 c-15 -49 -32 -89 -38 -89 -6 0 -112 32 -236 70 -123 38 -226 67 -228 66 -7 -7 36 -82 82 -143 75 -99 195 -190 304 -229 36 -13 67 -22 70 -19 3 2 62 190 132 417 l127 413 -46 16 c-25 9 -55 19 -66 22 -17 6 -28 -6 -69 -75z"/>
 <path d="M1411 924 c0 -11 3 -14 6 -6 3 7 2 16 -1 19 -3 4 -6 -2 -5 -13z"/>
 <path d="M1441 644 c0 -11 3 -14 6 -6 3 7 2 16 -1 19 -3 4 -6 -2 -5 -13z"/>
 </g>
<g id="layer7" fill="#cdcdd0" stroke="none">
 <path d="M1088 2413 l-58 -4 0 -83 0 -83 -77 -12 c-165 -26 -341 -99 -483 -199 -448 -316 -600 -929 -354 -1426 120 -242 327 -438 570 -540 91 -38 201 -73 208 -65 6 7 106 343 106 357 0 6 -9 12 -19 12 -11 0 -52 12 -91 26 -40 14 -73 24 -74 22 -1 -2 -13 -40 -27 -85 -28 -95 -24 -94 -124 -36 -221 128 -385 348 -447 599 -25 105 -30 294 -9 389 93 424 428 722 857 761 74 7 211 -2 232 -15 9 -5 5 -27 -13 -86 -30 -96 -30 -95 -6 -95 10 0 52 -11 92 -24 41 -13 75 -23 76 -22 5 4 113 360 110 362 -8 9 -194 57 -255 66 l-73 12 3 88 3 88 -45 -2 c-25 -1 -71 -3 -102 -5z"/>
 <path d="M1173 1530 c0 -36 2 -50 4 -32 2 17 2 47 0 65 -2 17 -4 3 -4 -33z"/>
 <path d="M1619 873 c-13 -16 -12 -17 4 -4 16 13 21 21 13 21 -2 0 -10 -8 -17 -17z"/>
 <path d="M1421 854 c0 -11 3 -14 6 -6 3 7 2 16 -1 19 -3 4 -6 -2 -5 -13z"/>
 </g>
<g id="layer8" fill="#ffffff" stroke="none">
 <path d="M991 1718 c-5 -13 -21 -65 -36 -115 -31 -103 -32 -104 -105 -78 -24 8 -44 14 -46 13 -7 -9 -53 -172 -49 -178 3 -4 25 -13 50 -19 25 -6 45 -13 45 -16 0 -3 -24 -45 -95 -162 0 -1 -23 4 -50 12 -26 8 -54 15 -61 15 -8 0 -27 -47 -49 -115 -20 -63 -39 -115 -43 -115 -4 0 -43 11 -86 25 -44 14 -82 23 -84 20 -6 -6 17 -101 39 -160 l19 -50 241 -73 c132 -41 242 -72 243 -70 2 1 15 41 29 88 l26 86 -23 139 -24 140 50 82 c56 91 49 89 142 56 22 -7 40 -12 41 -11 1 2 5 105 7 229 l5 226 -66 21 c-117 36 -110 36 -120 10z"/>
 <path d="M1511 1271 c-17 -55 -31 -104 -31 -109 0 -21 -22 -23 -71 -7 -28 10 -54 13 -59 9 -10 -11 -54 -163 -49 -167 2 -2 29 -12 59 -23 l55 -19 6 -55 c4 -30 12 -108 19 -173 l12 -117 28 57 c34 72 105 169 182 249 l58 61 -2 174 -3 173 -70 23 c-38 12 -78 22 -87 22 -12 1 -24 -24 -47 -98z"/>
 <path d="M1140 687 c-42 -34 -76 -66 -76 -72 0 -10 207 -78 214 -70 3 3 -57 205 -61 205 -1 0 -36 -29 -77 -63z"/>
 <path d="M1662 565 c-39 -32 -47 -67 -27 -109 31 -66 119 -72 156 -13 22 37 24 56 7 92 -13 29 -55 55 -87 55 -11 0 -33 -11 -49 -25z"/>
 </g>

</svg>