<!DOCTYPE svg PUBLIC "-//W3C//DTD SVG 20010904//EN" "http://www.w3.org/TR/2001/REC-SVG-20010904/DTD/svg10.dtd">
<svg version="1.0" xmlns="http://www.w3.org/2000/svg" width="40px" height="40px" viewBox="0 0 400 400" preserveAspectRatio="xMidYMid meet">
<g id="layer1" fill="#000000" stroke="none">
 <path d="M27 344 c-4 -4 -7 -60 -7 -124 l0 -116 38 -17 c43 -19 107 -23 117 -7 3 6 31 10 61 10 30 0 54 -4 54 -10 0 -5 9 -10 20 -10 11 0 20 4 20 9 0 5 11 12 25 15 l26 7 -3 122 -3 122 -171 3 c-93 1 -173 -1 -177 -4z m267 -65 c28 -33 32 -59 14 -92 -17 -34 -39 -46 -80 -47 -28 0 -42 7 -62 31 -14 17 -26 41 -26 54 0 13 12 37 26 54 37 44 91 44 128 0z m-200 -120 c-3 -5 -10 -7 -15 -3 -5 3 -7 10 -3 15 3 5 10 7 15 3 5 -3 7 -10 3 -15z"/>
 <path d="M185 276 c-26 -19 -26 -83 0 -102 30 -22 81 -18 99 8 34 48 7 108 -48 108 -18 0 -41 -6 -51 -14z m59 -75 c-7 -9 -34 10 -34 24 0 13 3 12 18 -2 10 -10 17 -20 16 -22z"/>
 </g>

</svg>